<svg width="485" height="222" viewBox="0 0 485 222" fill="none" xmlns="http://www.w3.org/2000/svg">
<path d="M2.377 12.591C5.077 6.867 8.02 3.84702 13.007 1.68402L16.5 0.169006L31.79 0.130005L47.08 0.0910034L50.885 2.03198C55.855 4.56798 60.627 10.084 61.94 14.814C62.517 16.891 62.991 24.328 62.994 31.341L63 44.091H31.5H0L0.0100021 30.841L0.0199966 17.591L2.377 12.591Z" fill="#511826"/>
<path d="M122.781 24.091C136.383 8.013 139.482 5.26999 147.644 2.08099L152.5 0.184998L191.782 0.138L231.065 0.0910034L221.282 11.375C215.902 17.581 207.282 27.481 202.126 33.375L192.752 44.091H149.202H105.651L107.659 41.841C108.764 40.604 115.568 32.616 122.781 24.091Z" fill="#511826"/>
<path d="M247.5 9C249.15 6.659 252.522 3.67701 254.993 2.37201L259.486 0L285.493 0.296021L311.5 0.591003L317 3.18799C323.78 6.38999 330.148 12.475 333.368 18.831C334.709 21.476 337.149 28.242 338.791 33.866L341.776 44.091H292.818H243.859L244.18 28.673L244.5 13.255L247.5 9Z" fill="#511826"/>
<path d="M390.037 37.199C395.785 16.458 401.94 8.18501 415.892 2.44501L421.5 0.138L444.934 0.11499L468.369 0.0910034L472.604 2.14099C477.271 4.39999 481.043 8.76899 482.834 13.99C483.494 15.915 484 23.181 484 30.74V44.091H436.064H388.127L390.037 37.199Z" fill="#511826"/>
<path d="M0 120.091V89.0909V58.091H31.5H63V75.674C63 85.3449 63.383 93.1079 63.851 92.924C64.32 92.741 66.682 90.236 69.101 87.358C84.535 68.994 93.397 58.8759 94.375 58.5009C94.994 58.2629 114.488 58.186 137.696 58.33L179.891 58.591L165.446 74.912C157.501 83.889 151 91.3969 151 91.5959C151 91.7959 154.825 98.054 159.5 105.505C164.175 112.955 168 119.285 168 119.571C168 119.857 130.2 120.091 84 120.091H0Z" fill="#511826"/>
<path d="M243.5 119.591L243.466 88.8409L243.431 58.091H294.683H345.936L348.403 66.341C351.393 76.338 361.431 111.124 362.832 116.341L363.839 120.091H339.102H314.365L312.549 114.341C311.55 111.178 308.536 100.971 305.85 91.658C303.165 82.345 300.75 74.507 300.484 74.241C300.218 73.975 300 84.1899 300 96.9399V120.122L271.75 119.857L243.5 119.591Z" fill="#511826"/>
<path d="M368 118.958C368 117.078 383.7 60.449 384.667 58.841C384.915 58.428 407.354 58.091 434.531 58.091H483.944L484.222 71.6169C484.375 79.0559 484.367 93.013 484.205 102.632L483.911 120.122L455.705 119.856L427.5 119.591L427.197 97.0909L426.895 74.5909L421.841 91.0909C419.062 100.166 416.007 110.291 415.053 113.591L413.319 119.591L390.66 119.86L368 120.129V118.958Z" fill="#511826"/>
<path d="M0 195.091V164.091V133.091L88.25 133.113L176.5 133.136L184.438 145.863C188.804 152.864 196.945 165.791 202.529 174.591C208.113 183.391 213.219 191.604 213.876 192.841L215.07 195.091H173.699H132.328L117.046 167.608L101.763 140.125L100.456 140.858C99.737 141.261 91.015 149.608 81.074 159.406L63 177.221V186.156V195.091H31.5H0Z" fill="#511826"/>
<path d="M243.42 195.091L243.284 164.091L243.147 133.091H271.43H299.714L300.212 153.341C300.486 164.479 300.491 178.428 300.224 184.341L299.738 195.091H271.579H243.42Z" fill="#511826"/>
<path d="M322.409 145.591C321.03 140.641 319.669 135.803 319.384 134.841L318.865 133.091H363.933H409V134.214C409 134.831 405.155 147.993 400.455 163.464C395.755 178.934 391.672 192.386 391.382 193.357L390.855 195.123L364.269 194.857L337.684 194.591L331.3 174.591C327.789 163.591 323.788 150.541 322.409 145.591Z" fill="#511826"/>
<path d="M427 195.091V164.091V133.091H455.5H484V164.091V195.091H455.5H427Z" fill="#511826"/>
<path d="M14.171 219.518C10.341 217.919 5.507 213.842 3.879 210.841L2.93 209.091H32.965H63V215.091V221.091L59.25 221.179C57.188 221.228 47.027 221.219 36.671 221.16L17.842 221.052L14.171 219.518Z" fill="#511826"/>
<path d="M155.069 219.659C149.994 217.818 144.511 213.914 142.978 211.05L141.93 209.091H183.231H224.533L228.016 214.826C229.932 217.98 231.613 220.793 231.75 221.076C231.888 221.359 215.688 221.518 195.75 221.429L159.5 221.267L155.069 219.659Z" fill="#511826"/>
<path d="M245 221.091V215.091V209.091H272.5H300L299.993 215.341L299.987 221.591H278.243C266.285 221.591 253.913 221.479 250.75 221.341L245 221.091Z" fill="#511826"/>
<path d="M345.773 220.591L343.995 214.841L342.216 209.091H364.461H386.705L384.602 215.11L382.5 221.129L364.136 220.86L345.773 220.591Z" fill="#511826"/>
<path d="M428 221.591V215.341V209.091H455C469.85 209.091 482 209.45 482 209.888C482 211.525 474.357 218.055 470.5 219.713L466.5 221.432L447.25 221.512L428 221.591Z" fill="#511826"/>
</svg>
